<mxfile host="Electron" agent="Mozilla/5.0 (Windows NT 10.0; Win64; x64) AppleWebKit/537.36 (KHTML, like Gecko) draw.io/28.2.8 Chrome/140.0.7339.240 Electron/38.4.0 Safari/537.36" version="28.2.8">
  <diagram name="Página-1" id="nlto6g4KFEhENt3lWQ-K">
    <mxGraphModel dx="1226" dy="1905" grid="1" gridSize="10" guides="1" tooltips="1" connect="1" arrows="1" fold="1" page="1" pageScale="1" pageWidth="827" pageHeight="1169" math="0" shadow="0">
      <root>
        <mxCell id="0" />
        <mxCell id="1" parent="0" />
        <mxCell id="c0aZRSFIFbcgfxnzL40h-1" value="" style="ellipse;whiteSpace=wrap;html=1;aspect=fixed;" vertex="1" parent="1">
          <mxGeometry x="400" y="-1060" width="80" height="80" as="geometry" />
        </mxCell>
        <mxCell id="c0aZRSFIFbcgfxnzL40h-2" value="" style="ellipse;whiteSpace=wrap;html=1;aspect=fixed;" vertex="1" parent="1">
          <mxGeometry x="400" y="-940" width="80" height="80" as="geometry" />
        </mxCell>
        <mxCell id="c0aZRSFIFbcgfxnzL40h-3" value="" style="ellipse;whiteSpace=wrap;html=1;aspect=fixed;" vertex="1" parent="1">
          <mxGeometry x="400" y="-820" width="80" height="80" as="geometry" />
        </mxCell>
        <mxCell id="c0aZRSFIFbcgfxnzL40h-4" value="Idle" style="ellipse;whiteSpace=wrap;html=1;aspect=fixed;" vertex="1" parent="1">
          <mxGeometry x="400" y="-660" width="80" height="80" as="geometry" />
        </mxCell>
        <mxCell id="c0aZRSFIFbcgfxnzL40h-5" value="" style="ellipse;whiteSpace=wrap;html=1;aspect=fixed;" vertex="1" parent="1">
          <mxGeometry x="280" y="-660" width="80" height="80" as="geometry" />
        </mxCell>
        <mxCell id="c0aZRSFIFbcgfxnzL40h-6" value="" style="ellipse;whiteSpace=wrap;html=1;aspect=fixed;" vertex="1" parent="1">
          <mxGeometry x="520" y="-660" width="80" height="80" as="geometry" />
        </mxCell>
        <mxCell id="c0aZRSFIFbcgfxnzL40h-7" value="Inicialização periféricos&amp;nbsp;&lt;div&gt;internos&lt;/div&gt;" style="text;html=1;whiteSpace=wrap;strokeColor=none;fillColor=none;align=center;verticalAlign=middle;rounded=0;" vertex="1" parent="1">
          <mxGeometry x="410" y="-1035" width="60" height="30" as="geometry" />
        </mxCell>
        <mxCell id="c0aZRSFIFbcgfxnzL40h-8" value="&lt;font style=&quot;font-size: 10px;&quot;&gt;Inicialização&amp;nbsp; dos periféricos externos&lt;/font&gt;" style="text;html=1;whiteSpace=wrap;strokeColor=none;fillColor=none;align=center;verticalAlign=middle;rounded=0;" vertex="1" parent="1">
          <mxGeometry x="410" y="-915" width="60" height="30" as="geometry" />
        </mxCell>
        <mxCell id="c0aZRSFIFbcgfxnzL40h-9" value="Configuração&amp;nbsp;&lt;div&gt;broker&lt;/div&gt;" style="text;html=1;whiteSpace=wrap;strokeColor=none;fillColor=none;align=center;verticalAlign=middle;rounded=0;" vertex="1" parent="1">
          <mxGeometry x="410" y="-795" width="60" height="30" as="geometry" />
        </mxCell>
        <mxCell id="c0aZRSFIFbcgfxnzL40h-10" value="Recepção&lt;div&gt;CAN&lt;/div&gt;" style="text;html=1;whiteSpace=wrap;strokeColor=none;fillColor=none;align=center;verticalAlign=middle;rounded=0;" vertex="1" parent="1">
          <mxGeometry x="290" y="-635" width="60" height="30" as="geometry" />
        </mxCell>
        <mxCell id="c0aZRSFIFbcgfxnzL40h-12" value="Transmissão&lt;div&gt;JSON&lt;/div&gt;" style="text;html=1;whiteSpace=wrap;strokeColor=none;fillColor=none;align=center;verticalAlign=middle;rounded=0;" vertex="1" parent="1">
          <mxGeometry x="530" y="-635" width="60" height="30" as="geometry" />
        </mxCell>
        <mxCell id="c0aZRSFIFbcgfxnzL40h-13" value="" style="curved=1;endArrow=classic;html=1;rounded=0;exitX=0.415;exitY=0.993;exitDx=0;exitDy=0;entryX=0.5;entryY=1;entryDx=0;entryDy=0;exitPerimeter=0;" edge="1" parent="1" source="c0aZRSFIFbcgfxnzL40h-4" target="c0aZRSFIFbcgfxnzL40h-5">
          <mxGeometry width="50" height="50" relative="1" as="geometry">
            <mxPoint x="430" y="-580" as="sourcePoint" />
            <mxPoint x="330" y="-578" as="targetPoint" />
            <Array as="points">
              <mxPoint x="430" y="-550" />
              <mxPoint x="400" y="-520" />
              <mxPoint x="330" y="-530" />
            </Array>
          </mxGeometry>
        </mxCell>
        <mxCell id="c0aZRSFIFbcgfxnzL40h-21" value="Recebe&amp;nbsp;&lt;div&gt;Pacote CAN&lt;/div&gt;&lt;div&gt;cada 2s&lt;/div&gt;" style="edgeLabel;html=1;align=center;verticalAlign=middle;resizable=0;points=[];" vertex="1" connectable="0" parent="c0aZRSFIFbcgfxnzL40h-13">
          <mxGeometry x="0.0434" relative="1" as="geometry">
            <mxPoint as="offset" />
          </mxGeometry>
        </mxCell>
        <mxCell id="c0aZRSFIFbcgfxnzL40h-14" value="" style="endArrow=classic;html=1;rounded=0;entryX=0.5;entryY=0;entryDx=0;entryDy=0;exitX=0.5;exitY=1;exitDx=0;exitDy=0;" edge="1" parent="1" source="c0aZRSFIFbcgfxnzL40h-1" target="c0aZRSFIFbcgfxnzL40h-2">
          <mxGeometry width="50" height="50" relative="1" as="geometry">
            <mxPoint x="230" y="-940" as="sourcePoint" />
            <mxPoint x="280" y="-990" as="targetPoint" />
          </mxGeometry>
        </mxCell>
        <mxCell id="c0aZRSFIFbcgfxnzL40h-16" value="" style="endArrow=classic;html=1;rounded=0;exitX=0.5;exitY=1;exitDx=0;exitDy=0;entryX=0.5;entryY=0;entryDx=0;entryDy=0;" edge="1" parent="1" source="c0aZRSFIFbcgfxnzL40h-3" target="c0aZRSFIFbcgfxnzL40h-4">
          <mxGeometry width="50" height="50" relative="1" as="geometry">
            <mxPoint x="470" y="-690" as="sourcePoint" />
            <mxPoint x="520" y="-740" as="targetPoint" />
          </mxGeometry>
        </mxCell>
        <mxCell id="c0aZRSFIFbcgfxnzL40h-17" value="" style="curved=1;endArrow=classic;html=1;rounded=0;exitX=0.573;exitY=0.996;exitDx=0;exitDy=0;entryX=0.5;entryY=1;entryDx=0;entryDy=0;exitPerimeter=0;" edge="1" parent="1" source="c0aZRSFIFbcgfxnzL40h-4" target="c0aZRSFIFbcgfxnzL40h-6">
          <mxGeometry width="50" height="50" relative="1" as="geometry">
            <mxPoint x="450" y="-580" as="sourcePoint" />
            <mxPoint x="570" y="-578" as="targetPoint" />
            <Array as="points">
              <mxPoint x="460" y="-530" />
              <mxPoint x="530" y="-520" />
              <mxPoint x="560" y="-550" />
            </Array>
          </mxGeometry>
        </mxCell>
        <mxCell id="c0aZRSFIFbcgfxnzL40h-22" value="Transmite&amp;nbsp;&lt;div&gt;pacote JSON&lt;/div&gt;&lt;div&gt;cada 5 s&lt;/div&gt;" style="edgeLabel;html=1;align=center;verticalAlign=middle;resizable=0;points=[];" vertex="1" connectable="0" parent="c0aZRSFIFbcgfxnzL40h-17">
          <mxGeometry x="-0.0491" relative="1" as="geometry">
            <mxPoint as="offset" />
          </mxGeometry>
        </mxCell>
        <mxCell id="c0aZRSFIFbcgfxnzL40h-19" value="" style="curved=1;endArrow=classic;html=1;rounded=0;entryX=0.327;entryY=0.039;entryDx=0;entryDy=0;entryPerimeter=0;" edge="1" parent="1" target="c0aZRSFIFbcgfxnzL40h-4">
          <mxGeometry width="50" height="50" relative="1" as="geometry">
            <mxPoint x="320" y="-660" as="sourcePoint" />
            <mxPoint x="370" y="-710" as="targetPoint" />
            <Array as="points">
              <mxPoint x="330" y="-700" />
              <mxPoint x="420" y="-700" />
            </Array>
          </mxGeometry>
        </mxCell>
        <mxCell id="c0aZRSFIFbcgfxnzL40h-20" value="" style="curved=1;endArrow=classic;html=1;rounded=0;entryX=0.66;entryY=0.021;entryDx=0;entryDy=0;entryPerimeter=0;exitX=0.5;exitY=0;exitDx=0;exitDy=0;" edge="1" parent="1" source="c0aZRSFIFbcgfxnzL40h-6" target="c0aZRSFIFbcgfxnzL40h-4">
          <mxGeometry width="50" height="50" relative="1" as="geometry">
            <mxPoint x="556" y="-660" as="sourcePoint" />
            <mxPoint x="450" y="-663" as="targetPoint" />
            <Array as="points">
              <mxPoint x="550" y="-700" />
              <mxPoint x="470" y="-700" />
            </Array>
          </mxGeometry>
        </mxCell>
        <mxCell id="c0aZRSFIFbcgfxnzL40h-23" value="" style="endArrow=classic;html=1;rounded=0;entryX=0.5;entryY=0;entryDx=0;entryDy=0;exitX=0.5;exitY=1;exitDx=0;exitDy=0;" edge="1" parent="1">
          <mxGeometry width="50" height="50" relative="1" as="geometry">
            <mxPoint x="439.86" y="-860" as="sourcePoint" />
            <mxPoint x="439.86" y="-820" as="targetPoint" />
          </mxGeometry>
        </mxCell>
      </root>
    </mxGraphModel>
  </diagram>
</mxfile>
